<?xml version="1.0" encoding="UTF-8"?><svg id="Layer_1" xmlns="http://www.w3.org/2000/svg" viewBox="0 0 220.92 187.8"><defs><style>.cls-1{fill:#fff;}</style></defs><path class="cls-1" d="M111,0h109.92c0,62.42,0,124.84,0,187.26,0,.18-.08,.36-.12,.54-.08-.18-.14-.37-.24-.54C185,125.67,149.44,64.07,113.9,2.47c-.69-1.2-1.51-2.14-2.9-2.47Z"/><path class="cls-1" d="M.12,187.8s-.11-.04-.11-.06c-.01-.16,0-.32,0-.48V0H109.92c-1.18,.31-2.03,.97-2.66,2.05C71.64,63.8,36,125.53,.36,187.26c-.1,.17-.16,.36-.24,.54Z"/><path d="M.12,187.8c.08-.18,.14-.37,.24-.54C36,125.53,71.64,63.8,107.27,2.05c.62-1.08,1.48-1.75,2.66-2.05h1.08c1.39,.32,2.21,1.27,2.9,2.47,35.54,61.6,71.11,123.2,106.66,184.8,.1,.17,.16,.36,.24,.54H.12Zm110.81-9.71c30.24,0,60.48,0,90.72,0,.24,0,.48,.02,.72,0,.79-.09,1.24-.86,.94-1.59-.08-.2-.2-.39-.31-.58-29.47-51.32-58.95-102.65-88.43-153.97-.87-1.51-1.72-3.02-2.61-4.51-.51-.86-1.5-.86-2.04-.02-.13,.2-.24,.41-.36,.62-29.97,52.19-59.95,104.38-89.92,156.57-.31,.54-.62,1.07-.92,1.61-.56,1.01-.07,1.86,1.07,1.88,.18,0,.36,0,.54,0H110.93Z"/><path class="cls-1" d="M110.93,178.09H20.34c-.18,0-.36,0-.54,0-1.15-.02-1.64-.87-1.07-1.88,.3-.54,.62-1.07,.92-1.61C49.62,122.41,79.59,70.22,109.56,18.03c.12-.21,.23-.42,.36-.62,.53-.84,1.53-.84,2.04,.02,.88,1.5,1.74,3.01,2.61,4.51,29.48,51.32,58.95,102.65,88.43,153.97,.11,.19,.22,.38,.31,.58,.31,.73-.15,1.5-.94,1.59-.24,.03-.48,0-.72,0-30.24,0-60.48,0-90.72,0Zm83.83-1.12c-.08-.22-.14-.41-.21-.59-.72-1.84-1.74-3.51-2.92-5.07-4.4-5.81-10.32-9.36-17.26-11.2-5.42-1.44-10.99-1.53-16.56-1.17-6.82,.45-13.5,1.72-20.12,3.39-7.18,1.81-14.14,4.26-20.92,7.19-4.96,2.14-9.99,4.04-15.27,5.25-6.73,1.54-13.52,2.23-20.41,1.38-6.77-.83-13.07-2.95-18.82-6.65-4.22-2.72-7.87-6.08-11.07-9.94-.33-.4-.78-.7-1.22-1.1,4.68-3.94,9.24-7.77,13.81-11.62,.16,.13,.31,.23,.44,.36,.89,.86,1.74,1.76,2.66,2.59,4.66,4.26,9.97,7.47,15.84,9.76,10.68,4.17,21.65,4.73,32.84,2.62,6.73-1.27,13.15-3.49,19.37-6.31,.16-.07,.32-.16,.48-.24-4.79,1.45-9.64,2.47-14.61,2.93-5.3,.5-10.58,.38-15.82-.63-10.87-2.08-19.61-7.56-26.22-16.45-.15-.2-.29-.41-.49-.7,7.92-4.84,16.52-7.46,25.75-8.78-2.38,3.39-3.36,7-2.83,10.95,.54,3.98,2.41,7.24,5.53,9.76,5.18,4.18,12.63,4.36,18.07,.43,2.71-1.96,4.6-4.54,5.57-7.74,1.35-4.46,.68-8.67-1.8-12.74,9.24,1.66,17.88,4.68,26.25,8.65-.5-.64-1.02-1.23-1.59-1.77-4.36-4.15-9.45-7.14-15.02-9.36-7.34-2.93-15.01-4.22-22.88-4.42-7.87-.19-15.64,.75-23.32,2.43-6.84,1.5-13.5,3.57-20.05,6.03-10.12,3.8-19.77,8.6-29.23,13.8-3.01,1.65-6.01,3.32-9,5.01-.36,.2-.71,.54-.91,.89-4.31,7.47-8.6,14.95-12.9,22.44-.1,.18-.2,.37-.31,.59H194.76ZM101.86,98.33h-22.74v8.53h22.74v-8.53Zm-22.77-20.38h22.75v-8.43c-.11-.01-.19-.03-.27-.03-6.64,0-13.28,0-19.92,.01-.19,0-.45,.15-.55,.31-.64,1.06-1.25,2.14-1.86,3.21-.08,.15-.15,.33-.15,.5-.01,1.46,0,2.92,0,4.42Zm44.93,20.35v8.58h20.89v-8.58h-20.89Zm-29.31-39.55h20.94v-8.42h-20.94v8.42Zm-6.93,1.15v8.46h20.9v-8.46h-20.9Zm40.65,37.25h20.94v-8.42h-20.94v8.42Zm-19.72-8.42h-20.94v8.42h20.94v-8.42Zm6.96-9.6h-20.94v8.42h20.94v-8.42Zm1.15-.03v8.46h20.9v-8.46h-20.9Zm3.02-29.92v-8.58h-19.82v8.58h19.82Zm3.03,49.15h-19.86v8.54h19.86v-8.54Zm-19.88-20.38h19.86v-8.42h-19.86v8.42Zm42.08,.01c-.14-.51-.18-.99-.4-1.38-1.24-2.21-2.53-4.4-3.77-6.61-.22-.39-.45-.51-.88-.51-5.14,.02-10.27,.01-15.41,.01h-.59v8.48h21.05Zm-58.44,10.74c-.17,0-.29-.02-.4-.02-5.18,0-10.35,0-15.53-.01-.36,0-.53,.15-.69,.43-1.44,2.53-2.9,5.05-4.35,7.58-.08,.15-.14,.31-.22,.46h21.18v-8.44Zm52.25,24.04c.12,.05,.23,.1,.34,.14,2.95,1.16,5.9,2.32,8.86,3.47,.25,.1,.54,.15,.81,.15,3.46,0,6.92,0,10.38,0,.17,0,.35-.01,.53-.02v-8.45h-20.92v4.7Zm-63.89-4.71c-.13-.01-.2-.03-.28-.03-5.06,0-10.12,0-15.18,.02-.21,0-.49,.23-.6,.42-1.47,2.52-2.92,5.05-4.37,7.58-.08,.13-.14,.27-.23,.44h20.66v-8.43Zm52.29-39.66v-8.46h-17.42v8.46h17.42Zm.03,20.35h-17.46v8.42h17.46v-8.42Zm-51.17-9.63v8.46h17.42v-8.46h-17.42Zm17.46,28.95h-17.48v8.43c.1,.01,.18,.03,.25,.03,3.78,0,7.55,0,11.33,0,.16,0,.32-.02,.47-.07,1.71-.68,3.41-1.36,5.11-2.06,.14-.06,.31-.27,.31-.42,.02-1.96,.01-3.91,.01-5.91Zm-15.61-9.73c-.13-.01-.21-.03-.28-.03-4.2,0-8.39,0-12.59-.01-.37,0-.48,.19-.62,.44-1.48,2.58-2.96,5.16-4.44,7.74-.08,.13-.13,.28-.19,.42h18.12v-8.55Zm38.81-39.58h17.62c-.12-.23-.22-.42-.33-.6-1.41-2.46-2.83-4.91-4.22-7.38-.21-.37-.43-.48-.84-.48-3.88,.01-7.76,0-11.64,.01-.19,0-.39,.02-.59,.03v8.43Zm6.55-19.28c-.13-.24-.21-.4-.3-.55-1.43-2.49-2.87-4.98-4.28-7.48-.21-.37-.44-.47-.84-.47-3.5,.02-6.99,0-10.49,.01-.19,0-.39,.02-.58,.03v8.46h16.48Zm-37.94,78.19h-21.16v8.47c.22,0,.42,0,.61,0,1.96,0,3.92,.02,5.87-.02,.35,0,.73-.15,1.03-.34,2.62-1.65,5.19-3.37,7.84-4.97,1.87-1.13,3.85-2.09,5.81-3.14Zm60.66-10.79h15.96c-.04-.09-.06-.18-.11-.26-1.53-2.66-3.05-5.33-4.6-7.98-.1-.18-.44-.31-.66-.31-3.34-.02-6.67-.01-10.01-.01-.19,0-.38,0-.57,0v8.57Zm27.04,19.26c-.15-.27-.23-.43-.31-.59-1.42-2.48-2.85-4.95-4.26-7.43-.22-.39-.46-.5-.89-.5-5.4,.02-10.8,.01-16.2,.01-.19,0-.38,0-.56,0,.15,.19,.32,.29,.49,.39,2.12,1.23,4.28,2.41,6.36,3.71,2.12,1.31,4.17,2.74,6.26,4.1,.28,.18,.65,.3,.99,.3,2.44,.03,4.88,.01,7.32,.01,.23,0,.47,0,.8,0Zm-110.03-.02v-8.49c-3.08,0-6.12,0-9.15,.02-.17,0-.4,.22-.5,.4-1.47,2.54-2.93,5.08-4.39,7.62-.07,.13-.12,.27-.2,.45h14.24Zm75.82-47.01v8.48h11.99s.03-.07,.03-.08c-1.55-2.72-3.1-5.44-4.67-8.15-.07-.12-.28-.23-.42-.23-2.3-.01-4.59-.01-6.93-.01Zm.99-10.72c-.02-.08-.02-.15-.04-.19-1.53-2.67-3.05-5.34-4.6-7.99-.09-.16-.37-.28-.56-.29-1.46-.02-2.92-.01-4.38-.01-.61,0-1.23,0-1.85,0v8.48h11.43Zm-45.18,39.67v5.85c6.81-2.33,13.77-3.76,20.93-4.11v-1.74h-20.93Zm-52.04,28.73c.1,.01,.16,.04,.21,.02,3.74-1.12,7.48-2.25,11.22-3.36,.37-.11,.38-.32,.38-.62,0-1.5,0-3,0-4.5,0-.35,0-.71,0-1.1-1.99,0-3.9,.01-5.82,0-.39,0-.6,.11-.8,.46-1.63,2.88-3.29,5.75-4.94,8.62-.09,.15-.16,.31-.26,.49Zm95.07-28.71h-20.93v1.68c7.13-.2,14.09,.7,20.93,2.69v-4.38ZM112.65,21.37c-1.13,0-2.18,.02-3.24,0-.37,0-.56,.11-.74,.43-1.44,2.53-2.89,5.05-4.34,7.58-.08,.15-.15,.31-.22,.47h8.55v-8.47Zm-57.06,111.53c.19-.06,.33-.09,.46-.13,3.44-1.08,6.87-2.19,10.33-3.21,1.38-.41,2.15-1.54,3.22-2.31h-14.01v5.66ZM120.99,49.15h7.93c-1.63-2.83-3.21-5.59-4.81-8.35-.06-.1-.2-.22-.31-.22-.93-.02-1.86,0-2.81,0v8.58Zm-22.42-9.72h7.12v-8.46c-.62,0-1.22,.02-1.81,0-.38-.02-.56,.13-.74,.45-1.43,2.51-2.87,5.02-4.31,7.52-.09,.15-.16,.31-.26,.5Zm68.94,77.07c0-.09,0-.14-.01-.17-1.54-2.68-3.08-5.37-4.63-8.05-.07-.13-.26-.25-.41-.26-.49-.03-.99-.01-1.5-.01v8.49h6.54ZM87.45,58.75h6.11v-8.4c-.85-.23-1.36,0-1.78,.81-.9,1.74-1.93,3.4-2.9,5.1-.46,.81-.93,1.62-1.42,2.49Zm63.08,30v8.42h5.95c-.13-.24-.23-.42-.33-.61-1.35-2.35-2.73-4.69-4.03-7.06-.38-.69-.79-.99-1.59-.75Zm-51.7-39.57v-8.55c-.69-.23-1.04,.05-1.36,.62-1.37,2.45-2.79,4.88-4.19,7.32-.1,.18-.2,.37-.33,.6h5.87Zm72.77,78.07c0,1.13,.01,2.23,0,3.32,0,.34,.12,.53,.39,.73,2.23,1.62,4.44,3.26,6.66,4.89,.07,.05,.14,.08,.34,.18-.16-.31-.25-.48-.35-.65-1.33-2.32-2.66-4.64-3.99-6.95q-.97-1.69-3.04-1.52Zm-85-58.88v-8.15c-1.61,2.8-3.13,5.44-4.68,8.15h4.68Zm-11.64,12.31s-.06-.03-.09-.04c-1.32,2.3-2.63,4.59-3.97,6.93h4.06v-6.89ZM117.84,29.85c-1.36-2.36-2.66-4.64-4.03-7.02v7.02h4.03Zm52.65,97.4h-4.37c1.51,1.03,2.92,1.98,4.37,2.98v-2.98ZM112.33,20.25c-.49-.84-.92-1.6-1.39-2.41-.48,.83-.91,1.6-1.38,2.41h2.77Zm-34.36,55c-.56,.98-1.05,1.83-1.55,2.7h1.55v-2.7Z"/><path d="M194.76,176.97H19.58c.12-.22,.21-.41,.31-.59,4.29-7.48,8.58-14.96,12.9-22.44,.21-.36,.55-.69,.91-.89,2.99-1.69,5.99-3.35,9-5.01,9.46-5.2,19.11-10,29.23-13.8,6.55-2.46,13.21-4.54,20.05-6.03,7.68-1.68,15.44-2.62,23.32-2.43,7.87,.19,15.54,1.48,22.88,4.42,5.56,2.22,10.65,5.21,15.02,9.36,.57,.54,1.1,1.13,1.59,1.77-8.36-3.97-17.01-6.99-26.25-8.65,2.49,4.07,3.15,8.28,1.8,12.74-.97,3.21-2.85,5.79-5.57,7.74-5.44,3.92-12.89,3.74-18.07-.43-3.13-2.52-5-5.78-5.53-9.76-.53-3.95,.45-7.56,2.83-10.95-9.23,1.32-17.83,3.94-25.75,8.78,.2,.28,.34,.49,.49,.7,6.6,8.88,15.34,14.37,26.22,16.45,5.24,1,10.52,1.12,15.82,.63,4.97-.47,9.82-1.49,14.61-2.93-.16,.08-.31,.17-.48,.24-6.22,2.82-12.65,5.04-19.37,6.31-11.18,2.12-22.16,1.56-32.84-2.62-5.86-2.29-11.18-5.5-15.84-9.76-.91-.83-1.77-1.73-2.66-2.59-.13-.12-.27-.22-.44-.36-4.58,3.85-9.13,7.68-13.81,11.62,.45,.39,.89,.7,1.22,1.1,3.2,3.86,6.84,7.22,11.07,9.94,5.75,3.7,12.05,5.82,18.82,6.65,6.9,.84,13.68,.15,20.41-1.38,5.28-1.2,10.31-3.1,15.27-5.25,6.79-2.93,13.74-5.38,20.92-7.19,6.62-1.67,13.3-2.94,20.12-3.39,5.57-.37,11.14-.27,16.56,1.17,6.94,1.84,12.87,5.39,17.26,11.2,1.18,1.56,2.2,3.23,2.92,5.07,.07,.18,.13,.37,.21,.59Zm-74.52-37.5c0-2.26-1.8-4.1-4.05-4.11-2.27-.01-4.11,1.79-4.12,4.03-.02,2.29,1.8,4.14,4.08,4.14,2.26,0,4.09-1.81,4.09-4.06Z"/><path d="M101.86,98.33v8.53h-22.74v-8.53h22.74Z"/><path d="M79.09,77.95c0-1.5,0-2.96,0-4.42,0-.17,.07-.35,.15-.5,.61-1.08,1.22-2.15,1.86-3.21,.1-.16,.36-.31,.55-.31,6.64-.02,13.28-.01,19.92-.01,.08,0,.15,.02,.27,.03v8.43h-22.75Z"/><path d="M124.01,98.3h20.89v8.58h-20.89v-8.58Z"/><path d="M94.7,58.75v-8.42h20.94v8.42h-20.94Z"/><path d="M87.77,59.9h20.9v8.46h-20.9v-8.46Z"/><path d="M128.42,97.15v-8.42h20.94v8.42h-20.94Z"/><path d="M108.7,88.73v8.42h-20.94v-8.42h20.94Z"/><path d="M115.66,79.13v8.42h-20.94v-8.42h20.94Z"/><path d="M116.81,79.1h20.9v8.46h-20.9v-8.46Z"/><path d="M119.83,49.18h-19.82v-8.58h19.82v8.58Z"/><path d="M122.86,98.33v8.54h-19.86v-8.54h19.86Z"/><path d="M102.98,77.95v-8.42h19.86v8.42h-19.86Z"/><path d="M145.06,77.96h-21.05v-8.48h.59c5.14,0,10.27,0,15.41-.01,.43,0,.67,.12,.88,.51,1.24,2.21,2.53,4.39,3.77,6.61,.22,.39,.26,.87,.4,1.38Z"/><path d="M86.62,88.71v8.44h-21.18c.07-.15,.13-.31,.22-.46,1.45-2.53,2.9-5.05,4.35-7.58,.16-.28,.32-.43,.69-.43,5.18,.02,10.35,.01,15.53,.01,.12,0,.23,.01,.4,.02Z"/><path d="M138.87,112.75v-4.7h20.92v8.45c-.18,0-.36,.02-.53,.02-3.46,0-6.92,0-10.38,0-.27,0-.56-.05-.81-.15-2.96-1.15-5.91-2.31-8.86-3.47-.11-.04-.22-.09-.34-.14Z"/><path d="M74.98,108.04v8.43h-20.66c.09-.17,.15-.31,.23-.44,1.45-2.53,2.9-5.06,4.37-7.58,.12-.2,.4-.42,.6-.42,5.06-.02,10.12-.02,15.18-.02,.08,0,.15,.02,.28,.03Z"/><path d="M127.27,68.38h-17.42v-8.46h17.42v8.46Z"/><path d="M127.3,88.73v8.42h-17.46v-8.42h17.46Z"/><path d="M76.13,79.1h17.42v8.46h-17.42v-8.46Z"/><path d="M93.59,108.05c0,2,0,3.96-.01,5.91,0,.14-.17,.36-.31,.42-1.7,.7-3.4,1.38-5.11,2.06-.14,.06-.31,.07-.47,.07-3.78,0-7.55,0-11.33,0-.08,0-.15-.02-.25-.03v-8.43h17.48Z"/><path d="M77.98,98.32v8.55h-18.12c.07-.15,.12-.29,.19-.42,1.48-2.58,2.96-5.16,4.44-7.74,.14-.24,.25-.44,.62-.44,4.2,.02,8.39,.01,12.59,.01,.08,0,.15,.02,.28,.03Z"/><path d="M116.79,58.74v-8.43c.21-.01,.4-.03,.59-.03,3.88,0,7.76,0,11.64-.01,.41,0,.63,.11,.84,.48,1.39,2.47,2.81,4.92,4.22,7.38,.11,.19,.2,.38,.33,.6h-17.62Z"/><path d="M123.33,39.46h-16.48v-8.46c.19,0,.38-.03,.58-.03,3.5,0,6.99,0,10.49-.01,.4,0,.64,.11,.84,.47,1.41,2.5,2.85,4.99,4.28,7.48,.09,.15,.17,.31,.3,.55Z"/><path d="M85.4,117.65c-1.96,1.05-3.93,2.02-5.81,3.14-2.65,1.59-5.22,3.32-7.84,4.97-.3,.19-.68,.33-1.03,.34-1.96,.03-3.92,.02-5.87,.02-.19,0-.39,0-.61,0v-8.47h21.16Z"/><path d="M146.06,106.85v-8.57c.2,0,.39,0,.57,0,3.34,0,6.67,0,10.01,.01,.23,0,.56,.13,.66,.31,1.55,2.65,3.07,5.32,4.6,7.98,.05,.08,.07,.17,.11,.26h-15.96Z"/><path d="M173.1,126.11c-.34,0-.57,0-.8,0-2.44,0-4.88,.01-7.32-.01-.33,0-.71-.12-.99-.3-2.1-1.35-4.14-2.79-6.26-4.1-2.09-1.29-4.24-2.48-6.36-3.71-.17-.1-.33-.19-.49-.39,.19,0,.38,0,.56,0,5.4,0,10.8,0,16.2-.01,.43,0,.67,.11,.89,.5,1.4,2.49,2.83,4.96,4.26,7.43,.09,.15,.17,.31,.31,.59Z"/><path d="M63.07,126.1h-14.24c.08-.18,.12-.32,.2-.45,1.46-2.54,2.92-5.09,4.39-7.62,.1-.18,.33-.4,.5-.4,3.04-.02,6.07-.02,9.15-.02v8.49Z"/><path d="M138.89,79.09c2.34,0,4.63,0,6.93,.01,.14,0,.35,.11,.42,.23,1.57,2.71,3.12,5.43,4.67,8.15,0,.01-.01,.04-.03,.08h-11.99v-8.48Z"/><path d="M139.89,68.37h-11.43v-8.48c.62,0,1.24,0,1.85,0,1.46,0,2.92-.01,4.38,.01,.19,0,.47,.13,.56,.29,1.55,2.66,3.07,5.32,4.6,7.99,.03,.05,.02,.11,.04,.19Z"/><path d="M94.71,108.04h20.93v1.74c-7.17,.35-14.12,1.77-20.93,4.11v-5.85Z"/><path d="M42.67,136.76c.09-.18,.17-.33,.26-.49,1.65-2.87,3.3-5.74,4.94-8.62,.19-.34,.4-.46,.8-.46,1.91,.02,3.83,0,5.82,0,0,.4,0,.75,0,1.1,0,1.5,0,3,0,4.5,0,.3-.02,.51-.38,.62-3.74,1.11-7.48,2.24-11.22,3.36-.05,.02-.11-.01-.21-.02Z"/><path d="M137.74,108.05v4.38c-6.85-1.99-13.81-2.89-20.93-2.69v-1.68h20.93Z"/><path d="M112.65,21.37v8.47h-8.55c.08-.16,.14-.32,.22-.47,1.45-2.53,2.91-5.05,4.34-7.58,.18-.32,.38-.44,.74-.43,1.06,.03,2.12,0,3.24,0Z"/><path d="M55.59,132.9v-5.66h14.01c-1.07,.77-1.84,1.91-3.22,2.31-3.46,1.02-6.89,2.14-10.33,3.21-.13,.04-.26,.08-.46,.13Z"/><path d="M120.99,49.15v-8.58c.95,0,1.88,0,2.81,0,.11,0,.25,.12,.31,.22,1.59,2.76,3.18,5.52,4.81,8.35h-7.93Z"/><path d="M98.57,39.43c.1-.2,.18-.35,.26-.5,1.44-2.51,2.88-5.01,4.31-7.52,.18-.31,.36-.47,.74-.45,.59,.03,1.19,0,1.81,0v8.46h-7.12Z"/><path d="M167.51,116.5h-6.54v-8.49c.51,0,1-.02,1.5,.01,.14,0,.33,.14,.41,.26,1.55,2.68,3.09,5.36,4.63,8.05,.02,.03,0,.08,.01,.17Z"/><path d="M87.45,58.75c.5-.87,.96-1.68,1.42-2.49,.97-1.7,2-3.37,2.9-5.1,.42-.81,.93-1.04,1.78-.81v8.4h-6.11Z"/><path d="M150.53,88.75c.8-.24,1.21,.06,1.59,.75,1.3,2.38,2.68,4.71,4.03,7.06,.11,.18,.2,.37,.33,.61h-5.95v-8.42Z"/><path d="M98.83,49.17h-5.87c.13-.24,.23-.42,.33-.6,1.4-2.44,2.82-4.86,4.19-7.32,.32-.57,.67-.86,1.36-.62v8.55Z"/><path d="M171.61,127.25q2.07-.17,3.04,1.52c1.33,2.32,2.66,4.64,3.99,6.95,.1,.17,.18,.34,.35,.65-.2-.11-.28-.14-.34-.18-2.22-1.63-4.43-3.27-6.66-4.89-.27-.2-.39-.39-.39-.73,.02-1.09,0-2.19,0-3.32Z"/><path d="M86.6,68.37h-4.68c1.56-2.71,3.08-5.36,4.68-8.15v8.15Z"/><path d="M74.97,80.68v6.89h-4.06c1.34-2.33,2.66-4.63,3.97-6.93,.03,.01,.06,.03,.09,.04Z"/><path d="M117.84,29.85h-4.03v-7.02c1.37,2.38,2.68,4.66,4.03,7.02Z"/><path d="M170.49,127.26v2.98c-1.46-.99-2.86-1.95-4.37-2.98h4.37Z"/><path d="M112.33,20.25h-2.77c.46-.81,.9-1.58,1.38-2.41,.47,.81,.9,1.57,1.39,2.41Z"/><path d="M77.97,75.25v2.7h-1.55c.5-.87,.98-1.71,1.55-2.7Z"/><path class="cls-1" d="M120.25,139.46c0,2.25-1.84,4.07-4.09,4.06-2.28,0-4.09-1.84-4.08-4.14,.01-2.24,1.85-4.04,4.12-4.03,2.24,.01,4.05,1.85,4.05,4.11Z"/></svg>