<?xml version="1.0" encoding="utf-8"?>
<!-- Generator: Adobe Illustrator 26.5.1, SVG Export Plug-In . SVG Version: 6.00 Build 0)  -->
<svg version="1.1" id="Layer_1" xmlns="http://www.w3.org/2000/svg" xmlns:xlink="http://www.w3.org/1999/xlink" x="0px" y="0px"
	 viewBox="0 0 222.74 186.88" style="enable-background:new 0 0 222.74 186.88;" xml:space="preserve">
<style type="text/css">
	.st0{fill:#FFFFFF;}
</style>
<g>
	<path d="M1.94,187.41c0.08-0.18,0.14-0.37,0.24-0.54C37.81,125.14,73.46,63.41,109.08,1.67c0.62-1.08,1.48-1.75,2.66-2.05
		c0.36,0,0.72,0,1.08,0c1.39,0.32,2.21,1.27,2.9,2.47c35.54,61.6,71.11,123.2,106.66,184.8c0.1,0.17,0.16,0.36,0.24,0.54
		C149.06,187.41,75.5,187.41,1.94,187.41z M112.75,177.7c30.24,0,60.48,0,90.72,0c0.24,0,0.48,0.02,0.72-0.01
		c0.79-0.09,1.24-0.86,0.94-1.59c-0.08-0.2-0.2-0.39-0.31-0.58c-29.47-51.32-58.95-102.65-88.43-153.97
		c-0.87-1.51-1.72-3.02-2.61-4.51c-0.51-0.86-1.5-0.86-2.04-0.02c-0.13,0.2-0.24,0.41-0.36,0.62
		C81.41,69.83,51.43,122.02,21.46,174.21c-0.31,0.54-0.62,1.07-0.92,1.61c-0.56,1.01-0.07,1.86,1.07,1.88c0.18,0,0.36,0,0.54,0
		C52.35,177.7,82.55,177.7,112.75,177.7z"/>
	<path class="st0" d="M112.75,177.7c-30.2,0-60.4,0-90.6,0c-0.18,0-0.36,0-0.54,0c-1.15-0.02-1.64-0.87-1.07-1.88
		c0.3-0.54,0.62-1.07,0.92-1.61c29.97-52.19,59.95-104.38,89.92-156.57c0.12-0.21,0.23-0.42,0.36-0.62
		c0.53-0.84,1.53-0.84,2.04,0.02c0.88,1.5,1.74,3.01,2.61,4.51c29.48,51.32,58.95,102.65,88.43,153.97
		c0.11,0.19,0.23,0.38,0.31,0.58c0.31,0.73-0.15,1.5-0.94,1.59c-0.24,0.03-0.48,0.01-0.72,0.01
		C173.23,177.7,142.99,177.7,112.75,177.7z M196.58,176.58c-0.08-0.22-0.14-0.41-0.21-0.59c-0.72-1.84-1.74-3.51-2.92-5.07
		c-4.4-5.81-10.32-9.36-17.26-11.2c-5.42-1.44-10.99-1.53-16.56-1.17c-6.82,0.45-13.5,1.72-20.12,3.39
		c-7.18,1.81-14.14,4.26-20.92,7.19c-4.96,2.14-9.99,4.04-15.27,5.25c-6.73,1.54-13.52,2.23-20.41,1.38
		c-6.77-0.83-13.07-2.95-18.82-6.65c-4.22-2.72-7.87-6.08-11.07-9.94c-0.33-0.4-0.78-0.7-1.22-1.1c4.68-3.94,9.24-7.77,13.81-11.62
		c0.16,0.13,0.31,0.23,0.44,0.36c0.89,0.86,1.74,1.76,2.66,2.59c4.66,4.26,9.97,7.47,15.84,9.76c10.68,4.17,21.65,4.73,32.84,2.62
		c6.73-1.27,13.15-3.49,19.37-6.31c0.16-0.07,0.32-0.16,0.48-0.24c-4.79,1.45-9.64,2.47-14.61,2.93c-5.3,0.5-10.58,0.38-15.82-0.63
		c-10.87-2.08-19.61-7.56-26.22-16.45c-0.15-0.2-0.29-0.41-0.49-0.7c7.92-4.84,16.52-7.46,25.75-8.78c-2.38,3.39-3.36,7-2.83,10.95
		c0.54,3.98,2.41,7.24,5.53,9.76c5.18,4.18,12.63,4.36,18.07,0.43c2.71-1.96,4.6-4.54,5.57-7.74c1.35-4.46,0.68-8.67-1.8-12.74
		c9.24,1.66,17.88,4.68,26.25,8.65c-0.5-0.64-1.02-1.23-1.59-1.77c-4.36-4.15-9.45-7.14-15.02-9.36
		c-7.34-2.93-15.01-4.22-22.88-4.42c-7.87-0.19-15.64,0.75-23.32,2.43c-6.84,1.5-13.5,3.57-20.05,6.03
		c-10.12,3.8-19.77,8.6-29.23,13.8c-3.01,1.65-6.01,3.32-9,5.01c-0.36,0.2-0.71,0.54-0.91,0.89c-4.31,7.47-8.6,14.95-12.9,22.44
		c-0.1,0.18-0.2,0.37-0.31,0.59C79.83,176.58,138.18,176.58,196.58,176.58z M103.68,97.95c-7.62,0-15.18,0-22.74,0
		c0,2.88,0,5.71,0,8.53c7.6,0,15.16,0,22.74,0C103.68,103.62,103.68,100.8,103.68,97.95z M80.9,77.56c7.63,0,15.2,0,22.75,0
		c0-2.84,0-5.63,0-8.43c-0.11-0.01-0.19-0.03-0.27-0.03c-6.64,0-13.28,0-19.92,0.01c-0.19,0-0.45,0.15-0.55,0.31
		c-0.64,1.06-1.25,2.14-1.86,3.21c-0.08,0.15-0.15,0.33-0.15,0.5C80.9,74.6,80.9,76.06,80.9,77.56z M125.83,97.91
		c0,2.9,0,5.74,0,8.58c6.99,0,13.94,0,20.89,0c0-2.88,0-5.72,0-8.58C139.74,97.91,132.81,97.91,125.83,97.91z M96.52,58.36
		c7.02,0,13.98,0,20.94,0c0-2.83,0-5.62,0-8.42c-7,0-13.96,0-20.94,0C96.52,52.76,96.52,55.54,96.52,58.36z M89.59,59.51
		c0,2.86,0,5.66,0,8.46c6.99,0,13.94,0,20.9,0c0-2.84,0-5.64,0-8.46C103.51,59.51,96.57,59.51,89.59,59.51z M130.24,96.76
		c7.02,0,13.98,0,20.94,0c0-2.83,0-5.62,0-8.42c-7,0-13.96,0-20.94,0C130.24,91.16,130.24,93.94,130.24,96.76z M110.52,88.34
		c-7.02,0-13.98,0-20.94,0c0,2.83,0,5.62,0,8.42c7,0,13.96,0,20.94,0C110.52,93.94,110.52,91.17,110.52,88.34z M117.48,78.74
		c-7.02,0-13.98,0-20.94,0c0,2.84,0,5.63,0,8.42c7,0,13.96,0,20.94,0C117.48,84.34,117.48,81.56,117.48,78.74z M118.63,78.71
		c0,2.86,0,5.66,0,8.46c6.99,0,13.94,0,20.9,0c0-2.84,0-5.64,0-8.46C132.55,78.71,125.61,78.71,118.63,78.71z M121.65,48.79
		c0-2.9,0-5.74,0-8.58c-6.63,0-13.22,0-19.82,0c0,2.88,0,5.72,0,8.58C108.45,48.79,115.02,48.79,121.65,48.79z M124.68,97.94
		c-6.66,0-13.26,0-19.86,0c0,2.88,0,5.71,0,8.54c6.64,0,13.24,0,19.86,0C124.68,103.62,124.68,100.8,124.68,97.94z M104.8,77.56
		c6.66,0,13.26,0,19.86,0c0-2.83,0-5.62,0-8.42c-6.64,0-13.24,0-19.86,0C104.8,71.96,104.8,74.74,104.8,77.56z M146.88,77.58
		c-0.14-0.51-0.18-0.99-0.4-1.38c-1.24-2.21-2.53-4.4-3.77-6.61c-0.22-0.39-0.45-0.51-0.88-0.51c-5.14,0.02-10.27,0.01-15.41,0.01
		c-0.19,0-0.39,0-0.59,0c0,2.87,0,5.67,0,8.48C132.82,77.58,139.77,77.58,146.88,77.58z M88.44,88.32c-0.17-0.01-0.29-0.02-0.4-0.02
		c-5.18,0-10.35,0-15.53-0.01c-0.36,0-0.53,0.15-0.69,0.43c-1.44,2.53-2.9,5.05-4.35,7.58c-0.08,0.15-0.14,0.31-0.22,0.46
		c7.09,0,14.13,0,21.18,0C88.44,93.94,88.44,91.16,88.44,88.32z M140.69,112.36c0.12,0.05,0.23,0.1,0.34,0.14
		c2.95,1.16,5.9,2.32,8.86,3.47c0.25,0.1,0.54,0.15,0.81,0.15c3.46,0.01,6.92,0.01,10.38,0.01c0.17,0,0.35-0.01,0.53-0.02
		c0-2.85,0-5.65,0-8.45c-6.99,0-13.94,0-20.92,0C140.69,109.24,140.69,110.8,140.69,112.36z M76.8,107.65
		c-0.13-0.01-0.2-0.03-0.28-0.03c-5.06,0-10.12-0.01-15.18,0.02c-0.21,0-0.49,0.23-0.6,0.42c-1.47,2.52-2.92,5.05-4.37,7.58
		c-0.08,0.13-0.14,0.27-0.23,0.44c6.92,0,13.78,0,20.66,0C76.8,113.26,76.8,110.49,76.8,107.65z M129.09,67.99c0-2.86,0-5.66,0-8.46
		c-5.83,0-11.62,0-17.42,0c0,2.84,0,5.64,0,8.46C117.49,67.99,123.26,67.99,129.09,67.99z M129.12,88.35c-5.86,0-11.66,0-17.46,0
		c0,2.84,0,5.63,0,8.42c5.84,0,11.64,0,17.46,0C129.12,93.94,129.12,91.16,129.12,88.35z M77.95,78.71c0,2.86,0,5.66,0,8.46
		c5.83,0,11.62,0,17.42,0c0-2.84,0-5.64,0-8.46C89.55,78.71,83.77,78.71,77.95,78.71z M95.41,107.66c-5.87,0-11.67,0-17.48,0
		c0,2.83,0,5.62,0,8.43c0.1,0.01,0.18,0.03,0.25,0.03c3.78,0,7.55,0,11.33,0c0.16,0,0.32-0.02,0.47-0.07
		c1.71-0.68,3.41-1.36,5.11-2.06c0.14-0.06,0.31-0.27,0.31-0.42C95.42,111.62,95.41,109.66,95.41,107.66z M79.8,97.93
		c-0.13-0.01-0.21-0.03-0.28-0.03c-4.2,0-8.39,0-12.59-0.01c-0.37,0-0.48,0.19-0.62,0.44c-1.48,2.58-2.96,5.16-4.44,7.74
		c-0.08,0.13-0.13,0.28-0.19,0.42c6.07,0,12.09,0,18.12,0C79.8,103.62,79.8,100.8,79.8,97.93z M118.6,58.36c5.85,0,11.71,0,17.62,0
		c-0.12-0.23-0.22-0.42-0.33-0.6c-1.41-2.46-2.83-4.91-4.22-7.38c-0.21-0.37-0.43-0.48-0.84-0.48c-3.88,0.01-7.76,0.01-11.64,0.01
		c-0.19,0-0.39,0.02-0.59,0.03C118.6,52.75,118.6,55.53,118.6,58.36z M125.15,39.07c-0.13-0.24-0.21-0.4-0.3-0.55
		c-1.43-2.49-2.87-4.98-4.28-7.48c-0.21-0.37-0.44-0.47-0.84-0.47c-3.5,0.02-6.99,0.01-10.49,0.01c-0.19,0-0.39,0.02-0.58,0.03
		c0,2.85,0,5.65,0,8.46C114.17,39.07,119.62,39.07,125.15,39.07z M87.21,117.26c-7.07,0-14.11,0-21.16,0c0,2.83,0,5.62,0,8.47
		c0.22,0,0.42,0,0.61,0c1.96,0,3.92,0.02,5.87-0.02c0.35-0.01,0.73-0.15,1.03-0.34c2.62-1.65,5.19-3.37,7.84-4.97
		C83.28,119.28,85.26,118.31,87.21,117.26z M147.88,106.47c5.35,0,10.64,0,15.96,0c-0.04-0.09-0.06-0.18-0.11-0.26
		c-1.53-2.66-3.05-5.33-4.6-7.98c-0.1-0.18-0.44-0.31-0.66-0.31c-3.34-0.02-6.67-0.01-10.01-0.01c-0.19,0-0.38,0-0.57,0
		C147.88,100.81,147.88,103.62,147.88,106.47z M174.92,125.73c-0.15-0.27-0.23-0.43-0.31-0.59c-1.42-2.48-2.85-4.95-4.26-7.43
		c-0.22-0.39-0.46-0.5-0.89-0.5c-5.4,0.02-10.8,0.01-16.2,0.01c-0.19,0-0.38,0-0.56,0c0.15,0.19,0.32,0.29,0.49,0.39
		c2.12,1.23,4.28,2.41,6.36,3.71c2.12,1.31,4.17,2.74,6.26,4.1c0.28,0.18,0.65,0.3,0.99,0.3c2.44,0.03,4.88,0.01,7.32,0.01
		C174.35,125.73,174.58,125.73,174.92,125.73z M64.89,125.71c0-2.85,0-5.66,0-8.49c-3.08,0-6.12-0.01-9.15,0.02
		c-0.17,0-0.4,0.22-0.5,0.4c-1.47,2.54-2.93,5.08-4.39,7.62c-0.07,0.13-0.12,0.27-0.2,0.45C55.42,125.71,60.13,125.71,64.89,125.71z
		 M140.71,78.7c0,2.88,0,5.68,0,8.48c4.03,0,8.02,0,11.99,0c0.02-0.05,0.03-0.07,0.03-0.08c-1.55-2.72-3.1-5.44-4.67-8.15
		c-0.07-0.12-0.28-0.23-0.42-0.23C145.34,78.7,143.05,78.7,140.71,78.7z M141.7,67.98c-0.02-0.08-0.02-0.15-0.04-0.19
		c-1.53-2.67-3.05-5.34-4.6-7.99c-0.09-0.16-0.37-0.28-0.56-0.29c-1.46-0.02-2.92-0.01-4.38-0.01c-0.61,0-1.23,0-1.85,0
		c0,2.87,0,5.67,0,8.48C134.1,67.98,137.89,67.98,141.7,67.98z M96.53,107.65c0,1.97,0,3.88,0,5.85c6.81-2.33,13.77-3.76,20.93-4.11
		c0-0.61,0-1.16,0-1.74C110.48,107.65,103.53,107.65,96.53,107.65z M44.48,136.38c0.1,0.01,0.16,0.04,0.21,0.02
		c3.74-1.12,7.48-2.25,11.22-3.36c0.37-0.11,0.38-0.32,0.38-0.62c-0.01-1.5,0-3,0-4.5c0-0.35,0-0.71,0-1.1
		c-1.99,0-3.9,0.01-5.82-0.01c-0.39,0-0.6,0.11-0.8,0.46c-1.63,2.88-3.29,5.75-4.94,8.62C44.65,136.04,44.58,136.2,44.48,136.38z
		 M139.55,107.67c-7.02,0-13.98,0-20.93,0c0,0.58,0,1.11,0,1.68c7.13-0.2,14.09,0.7,20.93,2.69
		C139.55,110.54,139.55,109.13,139.55,107.67z M114.47,20.98c-1.13,0-2.18,0.02-3.24-0.01c-0.37-0.01-0.56,0.11-0.74,0.43
		c-1.44,2.53-2.89,5.05-4.34,7.58c-0.08,0.15-0.15,0.31-0.22,0.47c2.88,0,5.71,0,8.55,0C114.47,26.62,114.47,23.83,114.47,20.98z
		 M57.41,132.51c0.19-0.06,0.33-0.09,0.46-0.13c3.44-1.08,6.87-2.19,10.33-3.21c1.38-0.41,2.15-1.54,3.22-2.31
		c-4.66,0-9.32,0-14.01,0C57.41,128.74,57.41,130.59,57.41,132.51z M122.81,48.76c2.66,0,5.26,0,7.93,0
		c-1.63-2.83-3.21-5.59-4.81-8.35c-0.06-0.1-0.2-0.22-0.31-0.22c-0.93-0.02-1.86-0.01-2.81-0.01
		C122.81,43.08,122.81,45.91,122.81,48.76z M100.39,39.04c2.43,0,4.77,0,7.12,0c0-2.83,0-5.62,0-8.46c-0.62,0-1.22,0.02-1.81-0.01
		c-0.38-0.02-0.56,0.13-0.74,0.45c-1.43,2.51-2.87,5.02-4.31,7.52C100.56,38.69,100.49,38.85,100.39,39.04z M169.33,116.11
		c-0.01-0.09,0-0.14-0.01-0.17c-1.54-2.68-3.08-5.37-4.63-8.05c-0.07-0.13-0.26-0.25-0.41-0.26c-0.49-0.03-0.99-0.01-1.5-0.01
		c0,2.86,0,5.67,0,8.49C164.98,116.11,167.14,116.11,169.33,116.11z M89.27,58.36c2.1,0,4.11,0,6.11,0c0-2.84,0-5.63,0-8.4
		c-0.85-0.23-1.36,0-1.78,0.81c-0.9,1.74-1.93,3.4-2.9,5.1C90.23,56.68,89.77,57.49,89.27,58.36z M152.35,88.36
		c0,2.81,0,5.61,0,8.42c1.99,0,3.93,0,5.95,0c-0.13-0.24-0.23-0.42-0.33-0.61c-1.35-2.35-2.73-4.69-4.03-7.06
		C153.56,88.42,153.14,88.12,152.35,88.36z M100.65,48.79c0-2.9,0-5.74,0-8.55c-0.69-0.23-1.04,0.05-1.36,0.62
		c-1.37,2.45-2.79,4.88-4.19,7.32c-0.1,0.18-0.2,0.37-0.33,0.6C96.78,48.79,98.7,48.79,100.65,48.79z M173.42,126.86
		c0,1.13,0.01,2.23-0.01,3.32c-0.01,0.34,0.12,0.53,0.39,0.73c2.23,1.62,4.44,3.26,6.66,4.89c0.07,0.05,0.14,0.08,0.34,0.18
		c-0.16-0.31-0.25-0.48-0.35-0.65c-1.33-2.32-2.66-4.64-3.99-6.95C175.49,126.69,175.49,126.69,173.42,126.86z M88.42,67.98
		c0-2.69,0-5.33,0-8.15c-1.61,2.8-3.13,5.44-4.68,8.15C85.35,67.98,86.85,67.98,88.42,67.98z M76.78,80.29
		c-0.03-0.01-0.06-0.03-0.09-0.04c-1.32,2.3-2.63,4.59-3.97,6.93c1.42,0,2.73,0,4.06,0C76.78,84.86,76.78,82.57,76.78,80.29z
		 M119.66,29.47c-1.36-2.36-2.66-4.64-4.03-7.02c0,2.43,0,4.72,0,7.02C116.96,29.47,118.25,29.47,119.66,29.47z M172.3,126.87
		c-1.47,0-2.86,0-4.37,0c1.51,1.03,2.92,1.98,4.37,2.98C172.3,128.78,172.3,127.83,172.3,126.87z M114.14,19.87
		c-0.49-0.84-0.92-1.6-1.39-2.41c-0.48,0.83-0.91,1.6-1.38,2.41C112.34,19.87,113.19,19.87,114.14,19.87z M79.79,74.86
		c-0.56,0.98-1.05,1.83-1.55,2.7c0.57,0,1.06,0,1.55,0C79.79,76.69,79.79,75.86,79.79,74.86z"/>
	<path d="M196.58,176.58c-58.4,0-116.75,0-175.18,0c0.12-0.22,0.21-0.41,0.31-0.59c4.29-7.48,8.58-14.96,12.9-22.44
		c0.21-0.36,0.55-0.69,0.91-0.89c2.99-1.69,5.99-3.35,9-5.01c9.46-5.2,19.11-10,29.23-13.8c6.55-2.46,13.21-4.54,20.05-6.03
		c7.68-1.68,15.44-2.62,23.32-2.43c7.87,0.19,15.54,1.48,22.88,4.42c5.56,2.22,10.65,5.21,15.02,9.36c0.57,0.54,1.1,1.13,1.59,1.77
		c-8.36-3.97-17.01-6.99-26.25-8.65c2.49,4.07,3.15,8.28,1.8,12.74c-0.97,3.21-2.85,5.79-5.57,7.74
		c-5.44,3.92-12.89,3.74-18.07-0.43c-3.13-2.52-5-5.78-5.53-9.76c-0.53-3.95,0.45-7.56,2.83-10.95c-9.23,1.32-17.83,3.94-25.75,8.78
		c0.2,0.28,0.34,0.49,0.49,0.7c6.6,8.88,15.34,14.37,26.22,16.45c5.24,1,10.52,1.12,15.82,0.63c4.97-0.47,9.82-1.49,14.61-2.93
		c-0.16,0.08-0.31,0.17-0.48,0.24c-6.22,2.82-12.65,5.04-19.37,6.31c-11.18,2.12-22.16,1.56-32.84-2.62
		c-5.86-2.29-11.18-5.5-15.84-9.76c-0.91-0.83-1.77-1.73-2.66-2.59c-0.13-0.12-0.27-0.22-0.44-0.36
		c-4.58,3.85-9.13,7.68-13.81,11.62c0.45,0.39,0.89,0.7,1.22,1.1c3.2,3.86,6.84,7.22,11.07,9.94c5.75,3.7,12.05,5.82,18.82,6.65
		c6.9,0.84,13.68,0.15,20.41-1.38c5.28-1.2,10.31-3.1,15.27-5.25c6.79-2.93,13.74-5.38,20.92-7.19c6.62-1.67,13.3-2.94,20.12-3.39
		c5.57-0.37,11.14-0.27,16.56,1.17c6.94,1.84,12.87,5.39,17.26,11.2c1.18,1.56,2.2,3.23,2.92,5.07
		C196.44,176.17,196.5,176.36,196.58,176.58z M122.06,139.08c0.01-2.26-1.8-4.1-4.05-4.11c-2.27-0.01-4.11,1.79-4.12,4.03
		c-0.02,2.29,1.8,4.14,4.08,4.14C120.23,143.14,122.06,141.33,122.06,139.08z"/>
	<path d="M103.68,97.95c0,2.86,0,5.67,0,8.53c-7.57,0-15.14,0-22.74,0c0-2.83,0-5.66,0-8.53C88.49,97.95,96.06,97.95,103.68,97.95z"
		/>
	<path d="M80.9,77.56c0-1.5-0.01-2.96,0.01-4.42c0-0.17,0.07-0.35,0.15-0.5c0.61-1.08,1.22-2.15,1.86-3.21
		c0.1-0.16,0.36-0.31,0.55-0.31c6.64-0.02,13.28-0.01,19.92-0.01c0.08,0,0.15,0.02,0.27,0.03c0,2.8,0,5.6,0,8.43
		C96.1,77.56,88.54,77.56,80.9,77.56z"/>
	<path d="M125.83,97.91c6.98,0,13.91,0,20.89,0c0,2.86,0,5.7,0,8.58c-6.95,0-13.9,0-20.89,0
		C125.83,103.66,125.83,100.81,125.83,97.91z"/>
	<path d="M96.52,58.36c0-2.82,0-5.6,0-8.42c6.98,0,13.94,0,20.94,0c0,2.8,0,5.59,0,8.42C110.5,58.36,103.54,58.36,96.52,58.36z"/>
	<path d="M89.59,59.51c6.98,0,13.92,0,20.9,0c0,2.82,0,5.62,0,8.46c-6.95,0-13.9,0-20.9,0C89.59,65.18,89.59,62.37,89.59,59.51z"/>
	<path d="M130.24,96.76c0-2.82,0-5.6,0-8.42c6.98,0,13.94,0,20.94,0c0,2.79,0,5.58,0,8.42C144.22,96.76,137.26,96.76,130.24,96.76z"
		/>
	<path d="M110.52,88.34c0,2.82,0,5.6,0,8.42c-6.98,0-13.94,0-20.94,0c0-2.79,0-5.58,0-8.42C96.54,88.34,103.5,88.34,110.52,88.34z"
		/>
	<path d="M117.48,78.74c0,2.82,0,5.6,0,8.42c-6.98,0-13.94,0-20.94,0c0-2.79,0-5.58,0-8.42C103.5,78.74,110.46,78.74,117.48,78.74z"
		/>
	<path d="M118.63,78.71c6.98,0,13.92,0,20.9,0c0,2.82,0,5.62,0,8.46c-6.95,0-13.9,0-20.9,0C118.63,84.38,118.63,81.57,118.63,78.71z
		"/>
	<path d="M121.65,48.79c-6.62,0-13.2,0-19.82,0c0-2.86,0-5.7,0-8.58c6.59,0,13.18,0,19.82,0C121.65,43.05,121.65,45.89,121.65,48.79
		z"/>
	<path d="M124.68,97.94c0,2.86,0,5.68,0,8.54c-6.62,0-13.22,0-19.86,0c0-2.83,0-5.66,0-8.54C111.41,97.94,118.02,97.94,124.68,97.94
		z"/>
	<path d="M104.8,77.56c0-2.82,0-5.6,0-8.42c6.62,0,13.22,0,19.86,0c0,2.8,0,5.59,0,8.42C118.06,77.56,111.46,77.56,104.8,77.56z"/>
	<path d="M146.88,77.58c-7.11,0-14.06,0-21.05,0c0-2.81,0-5.61,0-8.48c0.21,0,0.4,0,0.59,0c5.14,0,10.27,0.01,15.41-0.01
		c0.43,0,0.67,0.12,0.88,0.51c1.24,2.21,2.53,4.39,3.77,6.61C146.7,76.59,146.74,77.07,146.88,77.58z"/>
	<path d="M88.44,88.32c0,2.84,0,5.62,0,8.44c-7.05,0-14.09,0-21.18,0c0.07-0.15,0.13-0.31,0.22-0.46c1.45-2.53,2.9-5.05,4.35-7.58
		c0.16-0.28,0.32-0.43,0.69-0.43c5.18,0.01,10.35,0.01,15.53,0.01C88.15,88.3,88.27,88.31,88.44,88.32z"/>
	<path d="M140.69,112.36c0-1.56,0-3.12,0-4.7c6.97,0,13.92,0,20.92,0c0,2.8,0,5.6,0,8.45c-0.18,0.01-0.36,0.02-0.53,0.02
		c-3.46,0-6.92,0-10.38-0.01c-0.27,0-0.56-0.05-0.81-0.15c-2.96-1.15-5.91-2.31-8.86-3.47
		C140.92,112.46,140.81,112.41,140.69,112.36z"/>
	<path d="M76.8,107.65c0,2.83,0,5.61,0,8.43c-6.88,0-13.74,0-20.66,0c0.09-0.17,0.15-0.31,0.23-0.44c1.45-2.53,2.9-5.06,4.37-7.58
		c0.12-0.2,0.4-0.42,0.6-0.42c5.06-0.02,10.12-0.02,15.18-0.02C76.59,107.62,76.67,107.64,76.8,107.65z"/>
	<path d="M129.09,67.99c-5.82,0-11.6,0-17.42,0c0-2.82,0-5.62,0-8.46c5.79,0,11.58,0,17.42,0
		C129.09,62.33,129.09,65.13,129.09,67.99z"/>
	<path d="M129.12,88.35c0,2.82,0,5.59,0,8.42c-5.81,0-11.62,0-17.46,0c0-2.79,0-5.58,0-8.42C117.45,88.35,123.26,88.35,129.12,88.35
		z"/>
	<path d="M77.95,78.71c5.82,0,11.59,0,17.42,0c0,2.82,0,5.62,0,8.46c-5.79,0-11.58,0-17.42,0C77.95,84.38,77.95,81.57,77.95,78.71z"
		/>
	<path d="M95.41,107.66c0,2,0.01,3.96-0.01,5.91c0,0.14-0.17,0.36-0.31,0.42c-1.7,0.7-3.4,1.38-5.11,2.06
		c-0.14,0.06-0.31,0.07-0.47,0.07c-3.78,0-7.55,0-11.33,0c-0.08,0-0.15-0.02-0.25-0.03c0-2.81,0-5.6,0-8.43
		C83.74,107.66,89.54,107.66,95.41,107.66z"/>
	<path d="M79.8,97.93c0,2.87,0,5.69,0,8.55c-6.03,0-12.06,0-18.12,0c0.07-0.15,0.12-0.29,0.19-0.42c1.48-2.58,2.96-5.16,4.44-7.74
		c0.14-0.24,0.25-0.44,0.62-0.44c4.2,0.02,8.39,0.01,12.59,0.01C79.59,97.9,79.67,97.92,79.8,97.93z"/>
	<path d="M118.6,58.36c0-2.83,0-5.6,0-8.43c0.21-0.01,0.4-0.03,0.59-0.03c3.88,0,7.76,0,11.64-0.01c0.41,0,0.63,0.11,0.84,0.48
		c1.39,2.47,2.81,4.92,4.22,7.38c0.11,0.19,0.2,0.38,0.33,0.6C130.32,58.36,124.46,58.36,118.6,58.36z"/>
	<path d="M125.15,39.07c-5.54,0-10.99,0-16.48,0c0-2.81,0-5.62,0-8.46c0.19-0.01,0.38-0.03,0.58-0.03c3.5,0,6.99,0.01,10.49-0.01
		c0.4,0,0.64,0.11,0.84,0.47c1.41,2.5,2.85,4.99,4.28,7.48C124.94,38.67,125.02,38.83,125.15,39.07z"/>
	<path d="M87.21,117.26c-1.96,1.05-3.93,2.02-5.81,3.14c-2.65,1.59-5.22,3.32-7.84,4.97c-0.3,0.19-0.68,0.33-1.03,0.34
		c-1.96,0.03-3.92,0.02-5.87,0.02c-0.19,0-0.39,0-0.61,0c0-2.85,0-5.64,0-8.47C73.11,117.26,80.15,117.26,87.21,117.26z"/>
	<path d="M147.88,106.47c0-2.84,0-5.66,0-8.57c0.2,0,0.39,0,0.57,0c3.34,0,6.67-0.01,10.01,0.01c0.23,0,0.56,0.13,0.66,0.31
		c1.55,2.65,3.07,5.32,4.6,7.98c0.05,0.08,0.07,0.17,0.11,0.26C158.51,106.47,153.23,106.47,147.88,106.47z"/>
	<path d="M174.92,125.73c-0.34,0-0.57,0-0.8,0c-2.44,0-4.88,0.01-7.32-0.01c-0.33,0-0.71-0.12-0.99-0.3
		c-2.1-1.35-4.14-2.79-6.26-4.1c-2.09-1.29-4.24-2.48-6.36-3.71c-0.17-0.1-0.33-0.19-0.49-0.39c0.19,0,0.38,0,0.56,0
		c5.4,0,10.8,0.01,16.2-0.01c0.43,0,0.67,0.11,0.89,0.5c1.4,2.49,2.83,4.96,4.26,7.43C174.69,125.29,174.77,125.45,174.92,125.73z"
		/>
	<path d="M64.89,125.71c-4.76,0-9.47,0-14.24,0c0.08-0.18,0.12-0.32,0.2-0.45c1.46-2.54,2.92-5.09,4.39-7.62
		c0.1-0.18,0.33-0.4,0.5-0.4c3.04-0.02,6.07-0.02,9.15-0.02C64.89,120.05,64.89,122.85,64.89,125.71z"/>
	<path d="M140.71,78.7c2.34,0,4.63,0,6.93,0.01c0.14,0,0.35,0.11,0.42,0.23c1.57,2.71,3.12,5.43,4.67,8.15
		c0.01,0.01-0.01,0.04-0.03,0.08c-3.98,0-7.96,0-11.99,0C140.71,84.38,140.71,81.58,140.71,78.7z"/>
	<path d="M141.7,67.98c-3.81,0-7.6,0-11.43,0c0-2.81,0-5.61,0-8.48c0.62,0,1.24,0,1.85,0c1.46,0,2.92-0.01,4.38,0.01
		c0.19,0,0.47,0.13,0.56,0.29c1.55,2.66,3.07,5.32,4.6,7.99C141.69,67.83,141.69,67.9,141.7,67.98z"/>
	<path d="M96.53,107.65c7,0,13.95,0,20.93,0c0,0.58,0,1.13,0,1.74c-7.17,0.35-14.12,1.77-20.93,4.11
		C96.53,111.53,96.53,109.62,96.53,107.65z"/>
	<path d="M44.48,136.38c0.09-0.18,0.17-0.33,0.26-0.49c1.65-2.87,3.3-5.74,4.94-8.62c0.19-0.34,0.4-0.46,0.8-0.46
		c1.91,0.02,3.83,0.01,5.82,0.01c0,0.4,0,0.75,0,1.1c0,1.5,0,3,0,4.5c0,0.3-0.02,0.51-0.38,0.62c-3.74,1.11-7.48,2.24-11.22,3.36
		C44.64,136.41,44.58,136.39,44.48,136.38z"/>
	<path d="M139.55,107.67c0,1.46,0,2.88,0,4.38c-6.85-1.99-13.81-2.89-20.93-2.69c0-0.57,0-1.1,0-1.68
		C125.57,107.67,132.54,107.67,139.55,107.67z"/>
	<path d="M114.47,20.98c0,2.85,0,5.64,0,8.47c-2.84,0-5.67,0-8.55,0c0.08-0.16,0.14-0.32,0.22-0.47c1.45-2.53,2.91-5.05,4.34-7.58
		c0.18-0.32,0.38-0.44,0.74-0.43C112.28,21,113.34,20.98,114.47,20.98z"/>
	<path d="M57.41,132.51c0-1.92,0-3.77,0-5.66c4.69,0,9.35,0,14.01,0c-1.07,0.77-1.84,1.91-3.22,2.31
		c-3.46,1.02-6.89,2.14-10.33,3.21C57.74,132.42,57.6,132.45,57.41,132.51z"/>
	<path d="M122.81,48.76c0-2.85,0-5.68,0-8.58c0.95,0,1.88-0.01,2.81,0.01c0.11,0,0.25,0.12,0.31,0.22c1.59,2.76,3.18,5.52,4.81,8.35
		C128.07,48.76,125.47,48.76,122.81,48.76z"/>
	<path d="M100.39,39.04c0.1-0.2,0.18-0.35,0.26-0.5c1.44-2.51,2.88-5.01,4.31-7.52c0.18-0.31,0.36-0.47,0.74-0.45
		c0.59,0.03,1.19,0.01,1.81,0.01c0,2.85,0,5.63,0,8.46C105.16,39.04,102.81,39.04,100.39,39.04z"/>
	<path d="M169.33,116.11c-2.19,0-4.35,0-6.54,0c0-2.82,0-5.63,0-8.49c0.51,0,1-0.02,1.5,0.01c0.14,0.01,0.33,0.14,0.41,0.26
		c1.55,2.68,3.09,5.36,4.63,8.05C169.33,115.97,169.32,116.02,169.33,116.11z"/>
	<path d="M89.27,58.36c0.5-0.87,0.96-1.68,1.42-2.49c0.97-1.7,2-3.37,2.9-5.1c0.42-0.81,0.93-1.04,1.78-0.81c0,2.77,0,5.56,0,8.4
		C93.38,58.36,91.37,58.36,89.27,58.36z"/>
	<path d="M152.35,88.36c0.8-0.24,1.21,0.06,1.59,0.75c1.3,2.38,2.68,4.71,4.03,7.06c0.11,0.18,0.2,0.37,0.33,0.61
		c-2.01,0-3.96,0-5.95,0C152.35,93.97,152.35,91.17,152.35,88.36z"/>
	<path d="M100.65,48.79c-1.96,0-3.87,0-5.87,0c0.13-0.24,0.23-0.42,0.33-0.6c1.4-2.44,2.82-4.86,4.19-7.32
		c0.32-0.57,0.67-0.86,1.36-0.62C100.65,43.05,100.65,45.89,100.65,48.79z"/>
	<path d="M173.42,126.86c2.07-0.17,2.07-0.17,3.04,1.52c1.33,2.32,2.66,4.64,3.99,6.95c0.1,0.17,0.18,0.34,0.35,0.65
		c-0.2-0.11-0.28-0.14-0.34-0.18c-2.22-1.63-4.43-3.27-6.66-4.89c-0.27-0.2-0.39-0.39-0.39-0.73
		C173.44,129.08,173.42,127.99,173.42,126.86z"/>
	<path d="M88.42,67.98c-1.57,0-3.08,0-4.68,0c1.56-2.71,3.08-5.36,4.68-8.15C88.42,62.65,88.42,65.29,88.42,67.98z"/>
	<path d="M76.78,80.29c0,2.29,0,4.57,0,6.89c-1.34,0-2.65,0-4.06,0c1.34-2.33,2.66-4.63,3.97-6.93
		C76.72,80.26,76.75,80.28,76.78,80.29z"/>
	<path d="M119.66,29.47c-1.41,0-2.7,0-4.03,0c0-2.3,0-4.59,0-7.02C116.99,24.83,118.3,27.11,119.66,29.47z"/>
	<path d="M172.3,126.87c0,0.96,0,1.91,0,2.98c-1.46-0.99-2.86-1.95-4.37-2.98C169.44,126.87,170.84,126.87,172.3,126.87z"/>
	<path d="M114.14,19.87c-0.95,0-1.81,0-2.77,0c0.46-0.81,0.9-1.58,1.38-2.41C113.22,18.27,113.66,19.02,114.14,19.87z"/>
	<path d="M79.79,74.86c0,1,0,1.83,0,2.7c-0.49,0-0.97,0-1.55,0C78.74,76.69,79.22,75.85,79.79,74.86z"/>
	<path class="st0" d="M122.06,139.08c-0.01,2.25-1.84,4.07-4.09,4.06c-2.28,0-4.09-1.84-4.08-4.14c0.01-2.24,1.85-4.04,4.12-4.03
		C120.26,134.98,122.07,136.82,122.06,139.08z"/>
</g>
</svg>
